# xmcd
#
# Track frame offsets:
#	150
#	13021
#	23156
#	35526
#	46445
#	59001
#	70458
#	82778
#	95698
#	108422
#	121765
#	140648
#	154868
#	166408
#	182517
#	198705
#	210803
#	219931
#	232510
#	250042
#	270871
#	287948
#	303400
#	315903
#	332336
#
# Disc length: 4642 seconds
#
# Revision: 2
# Processed by: cddbd v1.5.2PL0 Copyright (c) Steve Scherf et al.
# Submitted via: EZCDAudioConverter 2.1.7.1
#
DISCID=4d122019
DTITLE=V/A - Funk Drops 3/3
DYEAR=2004
DGENRE=
TTITLE0=The Commodores - Keep On Dancing
TTITLE1=Barry Jones - Do The Funky Boogaloo (Part 1)
TTITLE2=Freddie and The Kinfolk - Mashed Potato, Pop Corn
TTITLE3=Mighty Hannibal - Get In The Groove
TTITLE4=Johnny Cameron and The Camerons - Funky John
TTITLE5=Rufus Thomas - The Memphis Train
TTITLE6=Joyce Jones - Help Me Make Up My Mind
TTITLE7=The Meters - Here Comes The Meter Man
TTITLE8=The Commodores - Rise Up
TTITLE9=Bobby Byrd - I'm On The Move
TTITLE10=Black Haze Express - Won't Nobody Listen
TTITLE11=Earth, Wind And Fire - Fan The Fire
TTITLE12=Fabulous Counts - Get Down People
TTITLE13=Stovall Sisters - Hang On In There
TTITLE14=The Beginning Of The End - Monkey Tamarind
TTITLE15=Mark Holder and The Positives - Whatever's Fair
TTITLE16=Rasputin's Stash - Your Love Is Certified
TTITLE17=Charles Wright and The Watts 103rd St. Band - What Can You Bring Me
TTITLE18=Curtis Mayfield - Get Down [Single Version]
TTITLE19=The Meters - Just Kissed My Baby
TTITLE20=Black Heat - No Time To Burn
TTITLE21=6ix - I'm Just Like You
TTITLE22=Darrow Fletcher - Improve
TTITLE23=New Birth - Hurry Hurry
TTITLE24=Fred Wesley and The Horny Horns - Four Play [Promo Edit]
EXTD=
EXTT0=
EXTT1=
EXTT2=
EXTT3=
EXTT4=
EXTT5=
EXTT6=
EXTT7=
EXTT8=
EXTT9=
EXTT10=
EXTT11=
EXTT12=
EXTT13=
EXTT14=
EXTT15=
EXTT16=
EXTT17=
EXTT18=
EXTT19=
EXTT20=
EXTT21=
EXTT22=
EXTT23=
EXTT24=
PLAYORDER=
